<svg xmlns="http://www.w3.org/2000/svg" viewBox="0 0 947.99 856"><defs><style>.cls-1{fill:#827fb3;}.cls-1,.cls-2{fill-rule:evenodd;}.cls-2{fill:#9fa8da;}</style></defs><g id="Layer_2" data-name="Layer 2"><g id="Layer_1-2" data-name="Layer 1"><g id="logo"><path id="Path" class="cls-1" d="M303.36,10.49,1,834.49c-.11.3-.21.6-.3.91s-.18.62-.25.93-.14.62-.2.94-.1.63-.13,1-.06.64-.08,1,0,.64,0,1,0,.64,0,1,0,.64.09,1,.09.63.15,1,.13.62.21.93.17.62.27.93.2.61.32.9.24.6.37.89.28.58.43.86.31.56.48.84.34.54.52.8.38.52.58.77.4.5.61.74.44.47.67.69.46.45.7.66.49.41.74.61.51.39.78.57.53.35.8.52l.84.47.87.42c.29.13.59.25.89.36s.6.22.91.31.61.18.92.26.63.14.94.2.63.11.95.15l1,.08,1,0H272.79l.62,0c.2,0,.41,0,.61-.06l.62-.08.61-.11.6-.13.6-.15.59-.18.59-.2.58-.22.57-.25.56-.26.54-.29.54-.31.52-.33c.18-.11.35-.23.51-.35s.34-.24.5-.37.33-.25.48-.38l.47-.41.45-.42.44-.45.41-.45.4-.48.38-.48q.19-.26.36-.51l.34-.51L286,848l.3-.54c.09-.19.19-.37.28-.56s.17-.37.25-.56.16-.38.24-.57.15-.39.21-.58l284.91-824c.11-.3.2-.6.29-.91s.16-.61.23-.92.12-.63.17-.94.09-.63.12-.94,0-.64.06-.95,0-.64,0-1,0-.64-.05-1-.07-.63-.11-.94-.1-.63-.17-.94-.13-.62-.21-.92-.18-.61-.28-.92-.21-.59-.33-.89-.24-.58-.38-.87-.27-.57-.43-.85-.31-.55-.48-.82-.34-.53-.53-.79-.37-.51-.57-.76-.41-.49-.62-.72-.43-.47-.66-.69-.46-.44-.7-.64-.49-.41-.74-.6-.51-.38-.77-.56-.53-.35-.81-.51-.55-.32-.83-.46-.57-.28-.86-.41-.58-.25-.88-.36l-.9-.31-.92-.25-.93-.2L559,.11,558,0c-.31,0-.63,0-.95,0H317.78l-.61,0-.61.05-.6.09-.6.1-.6.13a5.66,5.66,0,0,0-.59.15l-.59.17L313,.93c-.2.07-.39.14-.57.22l-.57.23-.55.26-.54.28-.53.3-.52.32-.51.34-.49.36-.48.38-.46.39-.45.41-.43.43c-.15.15-.28.3-.42.45s-.27.3-.4.46-.26.31-.38.47l-.36.49-.35.51c-.11.17-.22.34-.32.51l-.31.53-.28.54c-.09.18-.18.37-.26.55s-.17.37-.25.56l-.22.57Z"/><path id="Path-2" data-name="Path" class="cls-1" d="M471.38,407.56,339.16,790.07c-.11.3-.2.6-.29.91s-.16.61-.23.92-.12.63-.17.94-.09.63-.12.94-.05.64-.06,1,0,.64,0,.95,0,.64.06,1,.06.63.1.94.1.63.17.94.13.62.22.92.17.61.27.92.21.6.33.89.24.58.38.87.28.57.43.85.31.55.48.82.34.53.53.79.37.51.57.76.41.49.62.72l.66.69.7.64c.24.21.49.41.74.6s.51.38.77.56.53.35.81.51.55.32.83.46.57.28.86.41.58.25.88.36l.9.31.92.25c.31.07.62.14.93.19s.62.11.94.15l.95.08c.31,0,.63,0,.95,0H588.15l.64,0,.63-.07.63-.08.63-.12.62-.14.62-.16.61-.19.6-.21a18.14,18.14,0,0,0,1.17-.5,6.19,6.19,0,0,0,.58-.28l.56-.3.54-.33.54-.35.52-.37a6.12,6.12,0,0,0,.5-.39c.17-.13.33-.27.49-.41s.32-.28.47-.43.31-.29.46-.44.29-.31.44-.47l.41-.48c.14-.16.27-.33.4-.5l.38-.51L601,804l.33-.54.31-.56c.11-.19.2-.37.3-.57s.18-.38.26-.57.17-.4.25-.59.15-.4.22-.6.14-.4.2-.61L659,615.16c.06-.2.12-.4.19-.6s.15-.4.23-.6.16-.39.24-.59l.27-.58c.09-.19.19-.38.29-.57l.31-.55c.11-.18.22-.36.34-.54s.23-.36.36-.53.25-.35.38-.51.26-.34.39-.5l.42-.49.44-.46.45-.45.47-.43.49-.41.51-.39.52-.37.53-.35c.18-.11.36-.22.55-.32s.37-.21.56-.31l.57-.28.58-.26.6-.23.6-.22c.2-.06.4-.13.61-.18l.61-.17.63-.14.62-.11.64-.09.63-.06.64,0H803.12l.64,0c.22,0,.43,0,.64,0l.64-.07c.21,0,.43-.05.64-.09l.63-.11.62-.14.62-.17.61-.19.61-.21.59-.24.59-.26.57-.29.57-.3.54-.34c.19-.11.36-.23.54-.35l.52-.37.51-.39.49-.42c.16-.14.32-.28.47-.43l.46-.45.43-.47.42-.49c.14-.16.27-.33.4-.5s.25-.34.37-.52a6.18,6.18,0,0,0,.36-.53c.12-.18.23-.36.34-.55l.31-.56.29-.57c.09-.19.18-.39.26-.58s.17-.4.25-.59l.22-.61c.06-.2.13-.4.19-.61l52-175q.13-.45.24-.9c.07-.31.13-.61.19-.91s.09-.62.13-.92.06-.62.08-.93,0-.62,0-.93,0-.62,0-.93,0-.62-.08-.92-.08-.62-.14-.92-.11-.61-.18-.91-.16-.6-.25-.9-.18-.59-.29-.88-.22-.58-.34-.87-.26-.56-.4-.84-.29-.55-.44-.82-.32-.53-.49-.79-.35-.51-.53-.76-.38-.49-.58-.73-.41-.47-.62-.69-.43-.44-.66-.66-.46-.42-.69-.62-.48-.39-.73-.57-.51-.36-.76-.53-.53-.34-.8-.49-.54-.3-.81-.44-.56-.27-.85-.39-.57-.24-.86-.35l-.88-.29-.9-.24-.91-.19c-.31,0-.61-.1-.92-.13s-.62-.06-.93-.08l-.93,0H485.88l-.62,0c-.2,0-.41,0-.61.06L484,397l-.61.11-.6.13-.6.15-.59.18-.59.2-.58.22-.57.25-.56.26-.54.29-.54.31-.52.33c-.18.11-.35.23-.51.35s-.34.24-.5.37a4.54,4.54,0,0,0-.48.39c-.16.13-.32.26-.47.4a6.14,6.14,0,0,0-.45.43l-.44.44-.41.45-.4.48c-.13.16-.26.32-.38.49a5.74,5.74,0,0,0-.36.5c-.12.17-.24.34-.35.52l-.32.52-.3.55c-.09.18-.19.36-.28.55s-.17.37-.25.56-.17.38-.24.57S471.44,407.37,471.38,407.56Z"/><path id="Path-3" data-name="Path" class="cls-2" d="M556.09,163.35l-64,180.43c-.11.3-.21.61-.29.91s-.17.62-.24.93-.13.62-.18.94-.1.63-.13.95-.05.63-.07.95,0,.64,0,1,0,.64.05,1,.06.63.1.95.1.63.16.94.13.62.21.93.17.62.27.92.21.6.33.9.24.59.38.88.27.57.42.85l.48.83c.17.27.35.53.53.79s.38.52.58.77.4.49.61.72.44.47.67.69.46.44.7.65.48.41.74.61l.77.56q.39.27.81.51c.27.17.55.32.83.47l.86.41c.29.13.59.25.89.36s.6.22.9.31.61.18.92.25.62.15.94.2.63.11.94.15l.95.08,1,0H873.39l.62,0,.63-.06.62-.09.61-.11.62-.13.6-.16.6-.18.6-.2.58-.23.57-.25.57-.28.55-.29.54-.32.53-.33.52-.36.5-.38.48-.4.47-.41c.15-.14.31-.29.45-.44a6.25,6.25,0,0,0,.44-.45l.42-.46.39-.49c.13-.16.26-.33.38-.5a5.88,5.88,0,0,0,.36-.51c.12-.17.23-.35.34-.53s.22-.35.32-.54l.3-.55.27-.56.26-.57.23-.59c.07-.19.14-.39.2-.59l59.23-180.44q.15-.45.27-.9c.08-.31.15-.61.22-.92s.11-.62.16-.93.07-.63.1-.94,0-.63,0-.94,0-.63,0-1,0-.63-.06-.94-.07-.62-.12-.93-.11-.63-.17-.93-.14-.62-.23-.92-.18-.6-.28-.9-.21-.59-.33-.88-.25-.58-.39-.86-.28-.57-.43-.84-.32-.55-.49-.81-.34-.53-.53-.78-.38-.51-.57-.75-.41-.48-.62-.71-.44-.46-.66-.68-.46-.43-.7-.63-.49-.41-.74-.59a8.29,8.29,0,0,0-.77-.55c-.26-.18-.52-.35-.79-.5s-.55-.32-.83-.46-.57-.28-.86-.4-.58-.25-.87-.36-.59-.21-.9-.3l-.91-.25-.92-.19-.93-.14-.94-.08c-.32,0-.63,0-1,0H570.55l-.61,0c-.21,0-.41,0-.61.06l-.61.08-.61.11-.6.13q-.3.06-.6.15l-.59.17-.58.2-.57.22-.57.24-.56.26-.54.29-.54.3-.52.33-.51.34-.49.37-.48.38-.47.4-.45.42c-.15.14-.29.29-.43.44l-.42.45c-.14.15-.27.31-.4.47l-.38.48-.36.5c-.12.17-.23.34-.34.51l-.33.52-.3.54c-.1.18-.19.36-.28.55s-.18.37-.26.55l-.24.57C556.23,163,556.15,163.15,556.09,163.35Z"/></g></g></g></svg>
