<?xml version="1.0" encoding="UTF-8"?>
<svg xmlns="http://www.w3.org/2000/svg" xmlns:xlink="http://www.w3.org/1999/xlink" width="286px" height="407px" viewBox="0 0 143 203" version="1.1">
<defs>
<linearGradient id="linear0" gradientUnits="userSpaceOnUse" x1="622.26" y1="514.65" x2="1212.33" y2="514.65" gradientTransform="matrix(0.214272,0,0,0.213745,-128.358874,-5.20256)">
<stop offset="0.41" style="stop-color:rgb(100%,100%,100%);stop-opacity:1;"/>
<stop offset="1" style="stop-color:rgb(100%,100%,100%);stop-opacity:0;"/>
</linearGradient>
<linearGradient id="linear1" gradientUnits="userSpaceOnUse" x1="120.58" y1="611.33" x2="342.48" y2="611.33" gradientTransform="matrix(0.214272,0,0,0.213745,0.000600679,0)">
<stop offset="0.31" style="stop-color:rgb(100%,100%,100%);stop-opacity:1;"/>
<stop offset="1" style="stop-color:rgb(100%,100%,100%);stop-opacity:0;"/>
</linearGradient>
</defs>
<g id="surface1">
<path style=" stroke:none;fill-rule:nonzero;fill:rgb(97.254902%,97.254902%,100%);fill-opacity:1;" d="M 7.273438 142.882812 C 7.273438 142.882812 -10.507812 52.5625 31.773438 35.101562 C 74.054688 17.644531 59.785156 -2.117188 84.199219 0.183594 C 108.613281 2.480469 122.433594 33.3125 126.117188 62.011719 C 129.804688 90.710938 144.007812 158.25 120.398438 165.953125 C 91.949219 175.238281 88.085938 204.269531 63.453125 202.90625 C 15.699219 200.289062 7.273438 142.882812 7.273438 142.882812 Z M 7.273438 142.882812 "/>
<path style=" stroke:none;fill-rule:nonzero;fill:rgb(91.372549%,92.941176%,98.431373%);fill-opacity:1;" d="M 4.972656 126.910156 L 131.410156 125.84375 C 131.410156 125.84375 88.433594 127.476562 88.015625 141.386719 C 87.597656 155.300781 82.578125 167.25 63.757812 168.679688 C 44.941406 170.105469 32.226562 147.199219 8.132812 147.328125 C -8.09375 147.410156 4.972656 126.910156 4.972656 126.910156 Z M 4.972656 126.910156 "/>
<path style=" stroke:none;fill-rule:nonzero;fill:url(#linear0);" d="M 4.972656 126.910156 L 131.410156 125.84375 C 131.410156 125.84375 108.460938 99.390625 89.363281 104.804688 C 75.867188 108.628906 82.578125 84.238281 63.757812 82.789062 C 44.941406 81.34375 61.96875 96.46875 37.875 96.347656 C 21.652344 96.261719 4.972656 126.910156 4.972656 126.910156 Z M 4.972656 126.910156 "/>
<path style=" stroke:none;fill-rule:nonzero;fill:rgb(72.941176%,77.254902%,95.686275%);fill-opacity:1;" d="M 61.902344 140.609375 L 75.453125 140.609375 C 75.453125 140.609375 74.136719 135.726562 69.996094 135.90625 C 65.855469 136.085938 65.855469 138.257812 65.855469 138.257812 C 65.855469 138.257812 61.339844 137.980469 61.902344 140.609375 Z M 61.902344 140.609375 "/>
<path style=" stroke:none;fill-rule:nonzero;fill:rgb(72.941176%,77.254902%,95.686275%);fill-opacity:1;" d="M 73.382812 134.414062 L 92.960938 134.414062 C 92.960938 134.414062 92.582031 131.21875 90.324219 131.21875 C 88.066406 131.21875 88.253906 123.710938 83.171875 123.527344 C 78.089844 123.339844 74.890625 125.777344 73.382812 134.414062 Z M 73.382812 134.414062 "/>
<path style=" stroke:none;fill-rule:nonzero;fill:rgb(88.235294%,90.196078%,98.431373%);fill-opacity:1;" d="M 30.097656 73.8125 L 31.054688 75.253906 L 25.835938 126.925781 L 55.585938 126.925781 L 49.789062 75.152344 L 50.78125 73.8125 Z M 30.097656 73.8125 "/>
<path style=" stroke:none;fill-rule:nonzero;fill:rgb(72.941176%,77.254902%,95.686275%);fill-opacity:1;" d="M 50.636719 82.722656 L 30.261719 82.722656 L 30.402344 81.324219 L 50.480469 81.324219 Z M 50.636719 82.722656 "/>
<path style=" stroke:none;fill-rule:nonzero;fill:rgb(91.372549%,92.941176%,98.431373%);fill-opacity:1;" d="M 102.703125 28.710938 L 122.929688 28.710938 C 126.179688 28.710938 128.035156 24.917969 125.941406 22.433594 C 124.722656 20.980469 122.488281 19.894531 118.492188 20.050781 C 118.492188 20.050781 112.90625 9.472656 105.078125 20.035156 C 105.078125 20.035156 98.652344 19.394531 98.148438 23.515625 C 98.148438 23.558594 98.148438 23.601562 98.132812 23.636719 C 97.992188 24.933594 98.410156 26.222656 99.28125 27.191406 C 100.15625 28.160156 101.398438 28.714844 102.703125 28.710938 Z M 102.703125 28.710938 "/>
<path style=" stroke:none;fill-rule:nonzero;fill:rgb(91.372549%,92.941176%,98.431373%);fill-opacity:1;" d="M 9.679688 54.382812 L 32.753906 54.382812 C 36.460938 54.382812 38.574219 50.050781 36.183594 47.21875 C 34.789062 45.5625 32.242188 44.324219 27.679688 44.503906 C 27.679688 44.503906 21.308594 32.429688 12.382812 44.488281 C 12.382812 44.488281 5.035156 43.761719 4.472656 48.457031 C 4.472656 48.503906 4.460938 48.546875 4.457031 48.59375 C 4.296875 50.074219 4.773438 51.546875 5.773438 52.652344 C 6.769531 53.757812 8.1875 54.386719 9.679688 54.382812 Z M 9.679688 54.382812 "/>
<path style=" stroke:none;fill-rule:nonzero;fill:rgb(88.235294%,90.196078%,98.431373%);fill-opacity:1;" d="M 32.621094 70.265625 L 32.730469 63.40625 L 48.695312 63.40625 L 48.695312 69.992188 Z M 32.621094 70.265625 "/>
<path style=" stroke:none;fill-rule:nonzero;fill:rgb(72.941176%,77.254902%,95.686275%);fill-opacity:1;" d="M 52.222656 97.75 L 28.984375 97.75 L 29.15625 96.351562 L 52.042969 96.351562 Z M 52.222656 97.75 "/>
<path style=" stroke:none;fill-rule:nonzero;fill:rgb(72.941176%,77.254902%,95.686275%);fill-opacity:1;" d="M 54.1875 114.414062 L 27.089844 114.414062 L 27.230469 113.011719 L 54.027344 113.011719 Z M 54.1875 114.414062 "/>
<path style=" stroke:none;fill-rule:nonzero;fill:rgb(72.941176%,77.254902%,95.686275%);fill-opacity:1;" d="M 30.097656 73.8125 L 29.949219 71.527344 L 28.660156 70.324219 L 28.660156 69.453125 L 52.773438 69.453125 L 52.773438 70.335938 L 51.394531 71.292969 L 50.78125 73.8125 Z M 30.097656 73.8125 "/>
<path style=" stroke:none;fill-rule:nonzero;fill:rgb(100%,100%,100%);fill-opacity:1;" d="M 39.753906 68.054688 L 41.695312 68.054688 L 41.695312 66.3125 C 41.695312 66.3125 40.820312 64.859375 39.753906 66.3125 Z M 39.753906 68.054688 "/>
<path style="fill:none;stroke-width:2;stroke-linecap:butt;stroke-linejoin:miter;stroke:rgb(72.941176%,77.254902%,95.686275%);stroke-opacity:1;stroke-miterlimit:10;" d="M 134.755996 314.53549 L 148.282921 314.53549 L 148.282921 326.761638 L 134.755996 326.761638 Z M 134.755996 314.53549 " transform="matrix(0.214272,0,0,0.213745,0.000600679,0)"/>
<path style="fill:none;stroke-width:2;stroke-linecap:butt;stroke-linejoin:miter;stroke:rgb(72.941176%,77.254902%,95.686275%);stroke-opacity:1;stroke-miterlimit:10;" d="M 148.75691 314.53549 L 162.283835 314.53549 L 162.283835 326.761638 L 148.75691 326.761638 Z M 148.75691 314.53549 " transform="matrix(0.214272,0,0,0.213745,0.000600679,0)"/>
<path style="fill:none;stroke-width:2;stroke-linecap:butt;stroke-linejoin:miter;stroke:rgb(72.941176%,77.254902%,95.686275%);stroke-opacity:1;stroke-miterlimit:10;" d="M 162.757825 314.53549 L 176.284749 314.53549 L 176.284749 326.761638 L 162.757825 326.761638 Z M 162.757825 314.53549 " transform="matrix(0.214272,0,0,0.213745,0.000600679,0)"/>
<path style="fill:none;stroke-width:2;stroke-linecap:butt;stroke-linejoin:miter;stroke:rgb(72.941176%,77.254902%,95.686275%);stroke-opacity:1;stroke-miterlimit:10;" d="M 176.758739 314.53549 L 190.285664 314.53549 L 190.285664 326.761638 L 176.758739 326.761638 Z M 176.758739 314.53549 " transform="matrix(0.214272,0,0,0.213745,0.000600679,0)"/>
<path style="fill:none;stroke-width:2;stroke-linecap:butt;stroke-linejoin:miter;stroke:rgb(72.941176%,77.254902%,95.686275%);stroke-opacity:1;stroke-miterlimit:10;" d="M 189.756983 314.53549 L 203.283908 314.53549 L 203.283908 326.761638 L 189.756983 326.761638 Z M 189.756983 314.53549 " transform="matrix(0.214272,0,0,0.213745,0.000600679,0)"/>
<path style="fill:none;stroke-width:2;stroke-linecap:butt;stroke-linejoin:miter;stroke:rgb(72.941176%,77.254902%,95.686275%);stroke-opacity:1;stroke-miterlimit:10;" d="M 203.757898 314.53549 L 217.284822 314.53549 L 217.284822 326.761638 L 203.757898 326.761638 Z M 203.757898 314.53549 " transform="matrix(0.214272,0,0,0.213745,0.000600679,0)"/>
<path style="fill:none;stroke-width:2;stroke-linecap:butt;stroke-linejoin:miter;stroke:rgb(72.941176%,77.254902%,95.686275%);stroke-opacity:1;stroke-miterlimit:10;" d="M 217.758812 314.53549 L 231.285737 314.53549 L 231.285737 326.761638 L 217.758812 326.761638 Z M 217.758812 314.53549 " transform="matrix(0.214272,0,0,0.213745,0.000600679,0)"/>
<path style="fill:none;stroke-width:2;stroke-linecap:butt;stroke-linejoin:miter;stroke:rgb(72.941176%,77.254902%,95.686275%);stroke-opacity:1;stroke-miterlimit:10;" d="M 231.759726 314.53549 L 245.286651 314.53549 L 245.286651 326.761638 L 231.759726 326.761638 Z M 231.759726 314.53549 " transform="matrix(0.214272,0,0,0.213745,0.000600679,0)"/>
<path style=" stroke:none;fill-rule:nonzero;fill:rgb(72.941176%,77.254902%,95.686275%);fill-opacity:1;" d="M 32.519531 63.386719 L 31.773438 63.175781 C 31.558594 63.085938 31.3125 62.746094 31.480469 62.59375 L 39.320312 55.164062 C 39.433594 55.058594 39.453125 54.886719 39.367188 54.757812 C 39.191406 54.507812 39.03125 54.078125 39.769531 53.875 C 40.855469 53.570312 40.273438 51.835938 40.492188 51.835938 C 40.714844 51.835938 40.421875 53.226562 40.855469 53.570312 C 41.289062 53.917969 42.199219 54.027344 41.652344 54.792969 C 41.5625 54.921875 41.582031 55.097656 41.699219 55.203125 L 49.53125 62.46875 C 49.605469 62.539062 49.640625 62.636719 49.628906 62.738281 C 49.617188 62.839844 49.558594 62.929688 49.472656 62.976562 L 48.765625 63.375 C 48.71875 63.402344 48.664062 63.414062 48.609375 63.417969 L 32.730469 63.417969 C 32.660156 63.425781 32.585938 63.414062 32.519531 63.386719 Z M 32.519531 63.386719 "/>
<path style=" stroke:none;fill-rule:nonzero;fill:rgb(69.411765%,75.686275%,94.901961%);fill-opacity:1;" d="M 125.785156 134.628906 L 125.765625 89.988281 C 125.765625 89.988281 104.257812 88.289062 107.4375 74.847656 C 109.53125 66 116.609375 65.300781 116.4375 60.636719 C 116.3125 57.261719 119.386719 43.457031 128.671875 50.980469 C 136.003906 56.921875 132.558594 61.820312 136.347656 62.523438 C 140.230469 63.238281 144.960938 69.746094 142.332031 73.5625 C 139.699219 77.378906 142.628906 77.523438 142.628906 79.433594 C 142.628906 81.339844 144.183594 86.890625 136.289062 88.320312 C 128.398438 89.753906 126.863281 90.210938 126.863281 90.210938 L 127.527344 134.636719 Z M 125.785156 134.628906 "/>
<path style=" stroke:none;fill-rule:nonzero;fill:rgb(72.941176%,77.647059%,94.901961%);fill-opacity:1;" d="M 113.816406 135.015625 L 113.839844 97.226562 C 113.839844 97.226562 129.121094 95.792969 126.863281 84.414062 C 125.378906 76.917969 120.347656 76.332031 120.46875 72.378906 C 120.554688 69.523438 118.371094 57.84375 111.777344 64.203125 C 106.5625 69.234375 109.011719 73.382812 106.320312 73.972656 C 103.5625 74.574219 100.199219 80.085938 102.070312 83.316406 C 103.9375 86.550781 101.855469 86.671875 101.855469 88.289062 C 101.855469 89.902344 100.75 94.601562 106.355469 95.816406 C 111.960938 97.03125 113.050781 97.414062 113.050781 97.414062 L 112.621094 135.035156 Z M 113.816406 135.015625 "/>
<path style=" stroke:none;fill-rule:nonzero;fill:rgb(69.411765%,75.686275%,94.901961%);fill-opacity:1;" d="M 118.910156 136.296875 L 118.910156 113.828125 C 118.910156 113.828125 111.496094 112.976562 112.59375 106.195312 C 113.3125 101.730469 115.753906 101.378906 115.695312 99.023438 C 115.652344 97.3125 116.710938 90.359375 119.910156 94.15625 C 122.441406 97.148438 121.253906 99.621094 122.558594 99.972656 C 123.898438 100.335938 125.527344 103.617188 124.621094 105.542969 C 123.714844 107.46875 124.722656 107.539062 124.722656 108.503906 C 124.722656 109.46875 125.257812 112.265625 122.539062 112.992188 C 119.816406 113.71875 119.738281 113.726562 119.738281 113.726562 L 119.785156 136.238281 Z M 118.910156 136.296875 "/>
<path style=" stroke:none;fill-rule:nonzero;fill:url(#linear1);" d="M 25.835938 126.925781 L 73.382812 134.414062 L 55.585938 126.925781 "/>
</g>
</svg>
